
<svg id="visual" viewBox="0 0 540 960" width="540" height="960" xmlns="http://www.w3.org/2000/svg" xmlns:xlink="http://www.w3.org/1999/xlink" version="1.1"><rect x="0" y="0" width="540" height="960" fill="#ff8f18"></rect><g fill="none" stroke="#ffaa00" stroke-width="4"><path d="M10.8 6.2L10.8 27.8L-10.8 27.8L-10.8 6.2L-29.5 -4.6L-18.7 -23.3L0 -12.5L18.7 -23.3L29.5 -4.6Z" transform="translate(486 832)"></path><path d="M5.4 3.1L5.4 13.9L-5.4 13.9L-5.4 3.1L-14.7 -2.3L-9.3 -11.6L0 -6.2L9.3 -11.6L14.7 -2.3Z" transform="translate(86 912)"></path><path d="M8.1 4.7L8.1 20.9L-8.1 20.9L-8.1 4.7L-22.1 -3.4L-14 -17.4L0 -9.3L14 -17.4L22.1 -3.4Z" transform="translate(449 72)"></path><path d="M7.3 4.2L7.3 18.8L-7.3 18.8L-7.3 4.2L-19.9 -3.1L-12.6 -15.7L0 -8.4L12.6 -15.7L19.9 -3.1Z" transform="translate(150 456)"></path><path d="M8.9 5.1L8.9 23L-8.9 23L-8.9 5.1L-24.3 -3.8L-15.4 -19.2L0 -10.3L15.4 -19.2L24.3 -3.8Z" transform="translate(289 323)"></path><path d="M6.5 3.7L6.5 16.7L-6.5 16.7L-6.5 3.7L-17.7 -2.7L-11.2 -14L0 -7.5L11.2 -14L17.7 -2.7Z" transform="translate(188 670)"></path><path d="M9.4 5.5L9.4 24.3L-9.4 24.3L-9.4 5.5L-25.8 -4L-16.4 -20.4L0 -10.9L16.4 -20.4L25.8 -4Z" transform="translate(403 886)"></path><path d="M9.7 5.6L9.7 25L-9.7 25L-9.7 5.6L-26.5 -4.1L-16.8 -20.9L0 -11.2L16.8 -20.9L26.5 -4.1Z" transform="translate(33 709)"></path><path d="M6.2 3.6L6.2 16L-6.2 16L-6.2 3.6L-17 -2.6L-10.8 -13.4L0 -7.2L10.8 -13.4L17 -2.6Z" transform="translate(509 471)"></path><path d="M7 4.1L7 18.1L-7 18.1L-7 4.1L-19.2 -3L-12.2 -15.1L0 -8.1L12.2 -15.1L19.2 -3Z" transform="translate(172 338)"></path><path d="M8.6 5L8.6 22.3L-8.6 22.3L-8.6 5L-23.6 -3.6L-15 -18.6L0 -10L15 -18.6L23.6 -3.6Z" transform="translate(435 422)"></path><path d="M8.1 4.7L8.1 20.9L-8.1 20.9L-8.1 4.7L-22.1 -3.4L-14 -17.4L0 -9.3L14 -17.4L22.1 -3.4Z" transform="translate(398 580)"></path><path d="M5.4 3.1L5.4 13.9L-5.4 13.9L-5.4 3.1L-14.7 -2.3L-9.3 -11.6L0 -6.2L9.3 -11.6L14.7 -2.3Z" transform="translate(394 489)"></path><path d="M8.9 5.1L8.9 23L-8.9 23L-8.9 5.1L-24.3 -3.8L-15.4 -19.2L0 -10.3L15.4 -19.2L24.3 -3.8Z" transform="translate(101 142)"></path><path d="M5.9 3.4L5.9 15.3L-5.9 15.3L-5.9 3.4L-16.2 -2.5L-10.3 -12.8L0 -6.9L10.3 -12.8L16.2 -2.5Z" transform="translate(193 819)"></path><path d="M5.7 3.3L5.7 14.6L-5.7 14.6L-5.7 3.3L-15.5 -2.4L-9.8 -12.2L0 -6.5L9.8 -12.2L15.5 -2.4Z" transform="translate(305 665)"></path><path d="M8.6 5L8.6 22.3L-8.6 22.3L-8.6 5L-23.6 -3.6L-15 -18.6L0 -10L15 -18.6L23.6 -3.6Z" transform="translate(536 553)"></path><path d="M10 5.8L10 25.7L-10 25.7L-10 5.8L-27.3 -4.2L-17.3 -21.5L0 -11.5L17.3 -21.5L27.3 -4.2Z" transform="translate(323 840)"></path><path d="M5.7 3.3L5.7 14.6L-5.7 14.6L-5.7 3.3L-15.5 -2.4L-9.8 -12.2L0 -6.5L9.8 -12.2L15.5 -2.4Z" transform="translate(167 927)"></path><path d="M7.8 4.5L7.8 20.2L-7.8 20.2L-7.8 4.5L-21.4 -3.3L-13.6 -16.9L0 -9L13.6 -16.9L21.4 -3.3Z" transform="translate(58 254)"></path><path d="M8.9 5.1L8.9 23L-8.9 23L-8.9 5.1L-24.3 -3.8L-15.4 -19.2L0 -10.3L15.4 -19.2L24.3 -3.8Z" transform="translate(331 954)"></path><path d="M5.4 3.1L5.4 13.9L-5.4 13.9L-5.4 3.1L-14.7 -2.3L-9.3 -11.6L0 -6.2L9.3 -11.6L14.7 -2.3Z" transform="translate(245 512)"></path><path d="M9.4 5.5L9.4 24.3L-9.4 24.3L-9.4 5.5L-25.8 -4L-16.4 -20.4L0 -10.9L16.4 -20.4L25.8 -4Z" transform="translate(456 700)"></path><path d="M6.7 3.9L6.7 17.4L-6.7 17.4L-6.7 3.9L-18.4 -2.9L-11.7 -14.5L0 -7.8L11.7 -14.5L18.4 -2.9Z" transform="translate(38 839)"></path><path d="M8.9 5.1L8.9 23L-8.9 23L-8.9 5.1L-24.3 -3.8L-15.4 -19.2L0 -10.3L15.4 -19.2L24.3 -3.8Z" transform="translate(145 565)"></path><path d="M6.5 3.7L6.5 16.7L-6.5 16.7L-6.5 3.7L-17.7 -2.7L-11.2 -14L0 -7.5L11.2 -14L17.7 -2.7Z" transform="translate(54 541)"></path><path d="M7.3 4.2L7.3 18.8L-7.3 18.8L-7.3 4.2L-19.9 -3.1L-12.6 -15.7L0 -8.4L12.6 -15.7L19.9 -3.1Z" transform="translate(448 169)"></path><path d="M8.4 4.8L8.4 21.6L-8.4 21.6L-8.4 4.8L-22.9 -3.5L-14.5 -18L0 -9.7L14.5 -18L22.9 -3.5Z" transform="translate(111 797)"></path><path d="M7.8 4.5L7.8 20.2L-7.8 20.2L-7.8 4.5L-21.4 -3.3L-13.6 -16.9L0 -9L13.6 -16.9L21.4 -3.3Z" transform="translate(169 251)"></path><path d="M6.5 3.7L6.5 16.7L-6.5 16.7L-6.5 3.7L-17.7 -2.7L-11.2 -14L0 -7.5L11.2 -14L17.7 -2.7Z" transform="translate(64 35)"></path><path d="M6.5 3.7L6.5 16.7L-6.5 16.7L-6.5 3.7L-17.7 -2.7L-11.2 -14L0 -7.5L11.2 -14L17.7 -2.7Z" transform="translate(270 744)"></path><path d="M7.3 4.2L7.3 18.8L-7.3 18.8L-7.3 4.2L-19.9 -3.1L-12.6 -15.7L0 -8.4L12.6 -15.7L19.9 -3.1Z" transform="translate(80 397)"></path><path d="M7 4.1L7 18.1L-7 18.1L-7 4.1L-19.2 -3L-12.2 -15.1L0 -8.1L12.2 -15.1L19.2 -3Z" transform="translate(310 563)"></path><path d="M8.4 4.8L8.4 21.6L-8.4 21.6L-8.4 4.8L-22.9 -3.5L-14.5 -18L0 -9.7L14.5 -18L22.9 -3.5Z" transform="translate(517 277)"></path><path d="M7 4.1L7 18.1L-7 18.1L-7 4.1L-19.2 -3L-12.2 -15.1L0 -8.1L12.2 -15.1L19.2 -3Z" transform="translate(328 40)"></path><path d="M5.1 3L5.1 13.2L-5.1 13.2L-5.1 3L-14 -2.2L-8.9 -11L0 -5.9L8.9 -11L14 -2.2Z" transform="translate(218 79)"></path><path d="M8.6 5L8.6 22.3L-8.6 22.3L-8.6 5L-23.6 -3.6L-15 -18.6L0 -10L15 -18.6L23.6 -3.6Z" transform="translate(476 619)"></path><path d="M6.2 3.6L6.2 16L-6.2 16L-6.2 3.6L-17 -2.6L-10.8 -13.4L0 -7.2L10.8 -13.4L17 -2.6Z" transform="translate(360 383)"></path><path d="M9.7 5.6L9.7 25L-9.7 25L-9.7 5.6L-26.5 -4.1L-16.8 -20.9L0 -11.2L16.8 -20.9L26.5 -4.1Z" transform="translate(317 456)"></path><path d="M7.3 4.2L7.3 18.8L-7.3 18.8L-7.3 4.2L-19.9 -3.1L-12.6 -15.7L0 -8.4L12.6 -15.7L19.9 -3.1Z" transform="translate(353 217)"></path><path d="M9.4 5.5L9.4 24.3L-9.4 24.3L-9.4 5.5L-25.8 -4L-16.4 -20.4L0 -10.9L16.4 -20.4L25.8 -4Z" transform="translate(10 333)"></path><path d="M8.4 4.8L8.4 21.6L-8.4 21.6L-8.4 4.8L-22.9 -3.5L-14.5 -18L0 -9.7L14.5 -18L22.9 -3.5Z" transform="translate(319 136)"></path><path d="M8.1 4.7L8.1 20.9L-8.1 20.9L-8.1 4.7L-22.1 -3.4L-14 -17.4L0 -9.3L14 -17.4L22.1 -3.4Z" transform="translate(221 167)"></path><path d="M7.8 4.5L7.8 20.2L-7.8 20.2L-7.8 4.5L-21.4 -3.3L-13.6 -16.9L0 -9L13.6 -16.9L21.4 -3.3Z" transform="translate(402 300)"></path><path d="M7.6 4.4L7.6 19.5L-7.6 19.5L-7.6 4.4L-20.6 -3.2L-13.1 -16.3L0 -8.7L13.1 -16.3L20.6 -3.2Z" transform="translate(22 616)"></path><path d="M10 5.8L10 25.7L-10 25.7L-10 5.8L-27.3 -4.2L-17.3 -21.5L0 -11.5L17.3 -21.5L27.3 -4.2Z" transform="translate(14 453)"></path><path d="M6.2 3.6L6.2 16L-6.2 16L-6.2 3.6L-17 -2.6L-10.8 -13.4L0 -7.2L10.8 -13.4L17 -2.6Z" transform="translate(538 65)"></path><path d="M7.3 4.2L7.3 18.8L-7.3 18.8L-7.3 4.2L-19.9 -3.1L-12.6 -15.7L0 -8.4L12.6 -15.7L19.9 -3.1Z" transform="translate(488 939)"></path><path d="M9.7 5.6L9.7 25L-9.7 25L-9.7 5.6L-26.5 -4.1L-16.8 -20.9L0 -11.2L16.8 -20.9L26.5 -4.1Z" transform="translate(241 888)"></path><path d="M5.9 3.4L5.9 15.3L-5.9 15.3L-5.9 3.4L-16.2 -2.5L-10.3 -12.8L0 -6.9L10.3 -12.8L16.2 -2.5Z" transform="translate(252 412)"></path><path d="M5.1 3L5.1 13.2L-5.1 13.2L-5.1 3L-14 -2.2L-8.9 -11L0 -5.9L8.9 -11L14 -2.2Z" transform="translate(467 344)"></path><path d="M6.2 3.6L6.2 16L-6.2 16L-6.2 3.6L-17 -2.6L-10.8 -13.4L0 -7.2L10.8 -13.4L17 -2.6Z" transform="translate(269 229)"></path><path d="M6.5 3.7L6.5 16.7L-6.5 16.7L-6.5 3.7L-17.7 -2.7L-11.2 -14L0 -7.5L11.2 -14L17.7 -2.7Z" transform="translate(364 741)"></path><path d="M8.4 4.8L8.4 21.6L-8.4 21.6L-8.4 4.8L-22.9 -3.5L-14.5 -18L0 -9.7L14.5 -18L22.9 -3.5Z" transform="translate(530 156)"></path><path d="M6.5 3.7L6.5 16.7L-6.5 16.7L-6.5 3.7L-17.7 -2.7L-11.2 -14L0 -7.5L11.2 -14L17.7 -2.7Z" transform="translate(142 45)"></path><path d="M5.1 3L5.1 13.2L-5.1 13.2L-5.1 3L-14 -2.2L-8.9 -11L0 -5.9L8.9 -11L14 -2.2Z" transform="translate(12 172)"></path><path d="M10.3 5.9L10.3 26.4L-10.3 26.4L-10.3 5.9L-28 -4.3L-17.8 -22.1L0 -11.8L17.8 -22.1L28 -4.3Z" transform="translate(537 695)"></path><path d="M5.7 3.3L5.7 14.6L-5.7 14.6L-5.7 3.3L-15.5 -2.4L-9.8 -12.2L0 -6.5L9.8 -12.2L15.5 -2.4Z" transform="translate(221 591)"></path><path d="M5.9 3.4L5.9 15.3L-5.9 15.3L-5.9 3.4L-16.2 -2.5L-10.3 -12.8L0 -6.9L10.3 -12.8L16.2 -2.5Z" transform="translate(103 655)"></path><path d="M8.9 5.1L8.9 23L-8.9 23L-8.9 5.1L-24.3 -3.8L-15.4 -19.2L0 -10.3L15.4 -19.2L24.3 -3.8Z" transform="translate(6 923)"></path><path d="M7.6 4.4L7.6 19.5L-7.6 19.5L-7.6 4.4L-20.6 -3.2L-13.1 -16.3L0 -8.7L13.1 -16.3L20.6 -3.2Z" transform="translate(533 396)"></path><path d="M7.8 4.5L7.8 20.2L-7.8 20.2L-7.8 4.5L-21.4 -3.3L-13.6 -16.9L0 -9L13.6 -16.9L21.4 -3.3Z" transform="translate(253 7)"></path></g></svg>
